<svg width="2304" height="2304" viewBox="0 0 2304 2304" fill="none" xmlns="http://www.w3.org/2000/svg">
<path d="M1645.22 0H658.088C294.636 0 0 294.636 0 658.088V1645.22C0 2008.67 294.636 2303.31 658.088 2303.31H1645.22C2008.67 2303.31 2303.31 2008.67 2303.31 1645.22V658.088C2303.31 294.636 2008.67 0 1645.22 0Z" fill="#E03D3D"/>
<path d="M528.5 554.5H1704.5C1766.36 554.5 1816.5 604.642 1816.5 666.496V1444.5C1816.5 1506.36 1766.36 1556.5 1704.5 1556.5H640.496C578.642 1556.5 528.5 1506.36 528.5 1444.5V554.5Z" stroke="white" stroke-width="171"/>
<rect x="413" y="641" width="339" height="213" fill="#E03D3D"/>
<line x1="1385.52" y1="1566.54" x2="1626.75" y2="1886.67" stroke="white" stroke-width="171"/>
<line x1="788" y1="940.5" x2="1499" y2="940.5" stroke="white" stroke-width="171"/>
<line x1="788" y1="1235.5" x2="1226" y2="1235.5" stroke="white" stroke-width="171"/>
<line y1="-85.5" x2="400.839" y2="-85.5" transform="matrix(-0.601815 0.798636 0.798636 0.601815 1070.23 1618)" stroke="white" stroke-width="171"/>
</svg>
